<?xml version="1.0" encoding="utf-8"?>
<?xml-stylesheet type="text/xsl" href="rss1.xsl"?>
<rss version="2.0" xmlns:atom="http://www.w3.org/2005/Atom" xmlns:content="http://purl.org/rss/1.0/modules/content/" xmlns:dc="http://purl.org/dc/elements/1.1/" xmlns:media="http://search.yahoo.com/mrss/">
<channel>
 <title>Getty</title>
 <link>http://www.gettyimg.com/</link>
 <atom:link href="http://www.gettyimg.com/" rel="self" type="application/rss+xml" />

 
                <item>
                <title><![CDATA[【UPSCALED】Avril Lavigne - Smile (Music Video) 1080p Upscale]]></title>
                <link><![CDATA[https://sharemania.us/threads/avril-lavigne-smile-music-video-1080p-upscale.234789/]]></link>
                <description><![CDATA[<article>
<blockquote class="messageText SelectQuoteContainer ugc baseHtml">
<img src="https://i.imgur.com/tbBQ1h4.png" class="bbCodeImage LbImage" alt="[​IMG]" data-url="https://i.imgur.com/tbBQ1h4.png" style=""> <img src="https://i.imgur.com/g3G83w9.png" class="bbCodeImage LbImage" alt="[​IMG]" data-url="https://i.imgur.com/g3G83w9.png" style=""> <img src="https://i.imgur.com/RhOPB6b.png" class="bbCodeImage LbImage" alt="[​IMG]" data-url="https://i.imgur.com/RhOPB6b.png" style=""> <img src="https://i.imgur.com/cQYktTh.png" class="bbCodeImage LbImage" alt="[​IMG]" data-url="https://i.imgur.com/cQYktTh.png" style=""> <img src="https://i.imgur.com/Z1nVsuF.png" class="bbCodeImage LbImage" alt="[​IMG]" data-url="https://i.imgur.com/Z1nVsuF.png" style=""> <br>
<br>
<div class="ToggleTriggerAnchor bbCodeSpoilerContainer">
<button type="button" class="button bbCodeSpoilerButton ToggleTrigger Tooltip JsOnly" data-target="> .SpoilerTarget"><span>Spoiler: <span class="SpoilerTitle">MediaInfo</span></span></button>
<div class="SpoilerTarget bbCodeSpoilerText">General<br>
File size : 606 MiB<br>
Duration : 3 min 36 s<br>
Overall bit rate : 23.5 Mb/s<br>
Writing application : Lavf60.14.101<br>
Writing library : Lavf60.14.101<br>
ErrorDetectionType : Per level 1<br>
<br>
Video<br>
ID : 1<br>
Format : HEVC<br>
Format/Info : High Efficiency Video Coding<br>
Format profile : Main@L6.2@High<br>
Codec ID : V_MPEGH/ISO/HEVC<br>
Duration : 3 min 36 s<br>
Bit rate : 20.7 Mb/s<br>
Width : 1 600 pixels<br>
Height : 1 080 pixels<br>
Display aspect ratio : 16:9<br>
Frame rate mode : Constant<br>
Frame rate : 29.970 (30000/1001) FPS<br>
Color space : YUV<br>
Chroma subsampling : 4:2:0<br>
Bit depth : 8 bits<br>
Bits/(Pixel*Frame) : 0.399<br>
Stream size : 535 MiB (88%)<br>
Writing library : Lavc60.27.101 hevc_amf<br>
Default : No<br>
Forced : No<br>
Color range : Limited<br>
Transfer characteristics : BT.709<br>
Matrix coefficients : BT.709<br>
<br>
Audio<br>
ID : 2<br>
Format : PCM<br>
Format settings : Little / Signed<br>
Codec ID : A_PCM/INT/LIT<br>
Duration : 3 min 36 s<br>
Bit rate mode : Constant<br>
Bit rate : 2 304 kb/s<br>
Channel(s) : 2 channels<br>
Sampling rate : 48.0 kHz<br>
Bit depth : 24 bits<br>
Stream size : 59.6 MiB (10%)<br>
Writing library : Lavc60.27.101 hevc_amf<br>
Default : No<br>
Forced : No</div>
</div><br>
<div class="bbCodeBlock bbCodeVfcHH HiddenContent">
<div class="attribution type">Hidden Content:</div>
<blockquote>You must reply before you can see the hidden data contained here.</blockquote>
</div>
<div class="messageTextEndMarker">&nbsp;</div>
</blockquote>
</article>]]></description>
                <author><![CDATA[Avril1255]]></author>
                </item>

                
                <item>
                <title><![CDATA[【Requests】[REQ AUD] - Vanessa Carlton - Be Not Nobody]]></title>
                <link><![CDATA[https://sharemania.us/threads/vanessa-carlton-be-not-nobody.234792/]]></link>
                <description><![CDATA[<article>
<blockquote class="messageText SelectQuoteContainer ugc baseHtml">
Anyone have this in 320kps, CDQ or FLAC? <br>
<br>
Thanks! <img src="styles/default/xenforo/smilies/big_smile-48.png" class="mceSmilie" alt=":)" title="Smile    :)">
<div class="messageTextEndMarker">&nbsp;</div>
</blockquote>
</article>]]></description>
                <author><![CDATA[SQUIREBUFFY]]></author>
                </item>

                
                <item>
                <title><![CDATA[【HD Live Performances】Avril Lavigne - I Can Do Better (The Best Damn Tour) Upscale]]></title>
                <link><![CDATA[https://sharemania.us/threads/avril-lavigne-i-can-do-better-the-best-damn-tour-upscale.234788/]]></link>
                <description><![CDATA[<article>
<blockquote class="messageText SelectQuoteContainer ugc baseHtml">
<img src="https://i.imgur.com/qMoiPvP.png" class="bbCodeImage LbImage" alt="[​IMG]" data-url="https://i.imgur.com/qMoiPvP.png" style=""> <img src="https://i.imgur.com/8nHgui8.png" class="bbCodeImage LbImage" alt="[​IMG]" data-url="https://i.imgur.com/8nHgui8.png" style=""> <img src="https://i.imgur.com/SC242Nc.png" class="bbCodeImage LbImage" alt="[​IMG]" data-url="https://i.imgur.com/SC242Nc.png" style=""> <img src="https://i.imgur.com/hPMrevR.png" class="bbCodeImage LbImage" alt="[​IMG]" data-url="https://i.imgur.com/hPMrevR.png" style=""> <img src="https://i.imgur.com/p375I5e.png" class="bbCodeImage LbImage" alt="[​IMG]" data-url="https://i.imgur.com/p375I5e.png" style=""> <img src="https://i.imgur.com/ma2Xebx.png" class="bbCodeImage LbImage" alt="[​IMG]" data-url="https://i.imgur.com/ma2Xebx.png" style=""> <img src="https://i.imgur.com/sqVBvSz.png" class="bbCodeImage LbImage" alt="[​IMG]" data-url="https://i.imgur.com/sqVBvSz.png" style=""> <img src="https://i.imgur.com/6Qtc9bm.png" class="bbCodeImage LbImage" alt="[​IMG]" data-url="https://i.imgur.com/6Qtc9bm.png" style=""> <img src="https://i.imgur.com/iZ5f1T8.png" class="bbCodeImage LbImage" alt="[​IMG]" data-url="https://i.imgur.com/iZ5f1T8.png" style=""> <img src="https://i.imgur.com/MjHHze5.png" class="bbCodeImage LbImage" alt="[​IMG]" data-url="https://i.imgur.com/MjHHze5.png" style=""> <br>
<br>
<div class="ToggleTriggerAnchor bbCodeSpoilerContainer">
<button type="button" class="button bbCodeSpoilerButton ToggleTrigger Tooltip JsOnly" data-target="> .SpoilerTarget"><span>Spoiler: <span class="SpoilerTitle">MediaInfo</span></span></button>
<div class="SpoilerTarget bbCodeSpoilerText">General<br>
File size : 1.89 GiB<br>
Duration : 4 min 30 s<br>
Overall bit rate : 60.0 Mb/s<br>
Writing application : Lavf60.14.101<br>
Writing library : Lavf60.14.101<br>
ErrorDetectionType : Per level 1<br>
<br>
Video<br>
ID : 1<br>
Format : AVC<br>
Format/Info : Advanced Video Codec<br>
Format profile : High@L4.2<br>
Format settings : CABAC / 1 Ref Frames<br>
Format settings, CABAC : Yes<br>
Format settings, Reference fra : 1 frame<br>
Format settings, GOP : M=1, N=30<br>
Codec ID : V_MPEG4/ISO/AVC<br>
Duration : 4 min 30 s<br>
Width : 1 920 pixels<br>
Height : 1 080 pixels<br>
Display aspect ratio : 16:9<br>
Frame rate mode : Constant<br>
Frame rate : 29.970 (30000/1001) FPS<br>
Standard : Component<br>
Color space : YUV<br>
Chroma subsampling : 4:2:0<br>
Bit depth : 8 bits<br>
Scan type : Progressive<br>
Writing library : Lavc60.27.101 h264_amf<br>
Default : No<br>
Forced : No<br>
Color range : Limited<br>
Matrix coefficients : BT.709<br>
<br>
Audio<br>
ID : 2<br>
Format : AAC LC<br>
Format/Info : Advanced Audio Codec Low Complexity<br>
Codec ID : A_AAC-2<br>
Duration : 4 min 30 s<br>
Channel(s) : 2 channels<br>
Channel layout : L R<br>
Sampling rate : 44.1 kHz<br>
Frame rate : 43.066 FPS (1024 SPF)<br>
Compression mode : Lossy<br>
Default : Yes<br>
Forced : No</div>
</div><br>
<div class="ToggleTriggerAnchor bbCodeSpoilerContainer">
<button type="button" class="button bbCodeSpoilerButton ToggleTrigger Tooltip JsOnly" data-target="> .SpoilerTarget"><span>Spoiler: <span class="SpoilerTitle">GDrive Link</span></span></button>
<div class="SpoilerTarget bbCodeSpoilerText">
<div class="bbCodeBlock bbCodeVfcHH HiddenContent">
<div class="attribution type">Hidden Content:</div>
<blockquote>You must reply before you can see the hidden data contained here.</blockquote>
</div></div>
</div>
<div class="messageTextEndMarker">&nbsp;</div>
</blockquote>
</article>]]></description>
                <author><![CDATA[Avril1255]]></author>
                </item>

                
                <item>
                <title><![CDATA[【HD Live Performances】UPSCALE - Avril Lavigne - What The Hell (Music Station) 1080P Upscale]]></title>
                <link><![CDATA[https://sharemania.us/threads/avril-lavigne-what-the-hell-music-station-1080p-upscale.234793/]]></link>
                <description><![CDATA[<article>
<blockquote class="messageText SelectQuoteContainer ugc baseHtml">
Thanks
<div class="messageTextEndMarker">&nbsp;</div>
</blockquote>
</article>]]></description>
                <author><![CDATA[Avril1255]]></author>
                </item>

                
                <item>
                <title><![CDATA[【Albums (lossless)】FLAC - Black Sabbath - Paranoid [Quadraphonic Mix] - 1970/2023 [FLAC ● 4.0 ● 16/48 ● Blu-ray]]]></title>
                <link><![CDATA[https://sharemania.us/threads/black-sabbath-paranoid-quadraphonic-mix-1970-2023-flac-%E2%97%8F-4-0-%E2%97%8F-16-48-%E2%97%8F-blu-ray.234787/]]></link>
                <description><![CDATA[<article>
<blockquote class="messageText SelectQuoteContainer ugc baseHtml">
<img src="https://i.imgur.com/QMGkX75.png" class="bbCodeImage LbImage" alt="[​IMG]" data-url="https://i.imgur.com/QMGkX75.png" style=""> <img src="https://i.imgur.com/1aJpSWU.png" class="bbCodeImage LbImage" alt="[​IMG]" data-url="https://i.imgur.com/1aJpSWU.png" style=""> <img src="https://i.imgur.com/JxoufOn.png" class="bbCodeImage LbImage" alt="[​IMG]" data-url="https://i.imgur.com/JxoufOn.png" style=""> <img src="https://i.imgur.com/RWr4a7U.png" class="bbCodeImage LbImage" alt="[​IMG]" data-url="https://i.imgur.com/RWr4a7U.png" style=""> <br>
<br>
<div class="ToggleTriggerAnchor bbCodeSpoilerContainer">
<button type="button" class="button bbCodeSpoilerButton ToggleTrigger Tooltip JsOnly" data-target="> .SpoilerTarget"><span>Spoiler: <span class="SpoilerTitle">MediaInfo</span></span></button>
<div class="SpoilerTarget bbCodeSpoilerText">General<br>
File size : 507 MiB<br>
Duration : 2 min 41 s<br>
Overall bit rate : 26.3 Mb/s<br>
Writing application : Lavf60.14.101<br>
Writing library : Lavf60.14.101<br>
ErrorDetectionType : Per level 1<br>
SOFTWARE : Lavf51.12.1<br>
<br>
Video<br>
ID : 1<br>
Format : HEVC<br>
Format/Info : High Efficiency Video Coding<br>
Format profile : Main@L6.2@High<br>
Codec ID : V_MPEGH/ISO/HEVC<br>
Duration : 2 min 41 s<br>
Bit rate : 23.5 Mb/s<br>
Width : 1 920 pixels<br>
Height : 1 080 pixels<br>
Display aspect ratio : 16:9<br>
Frame rate mode : Constant<br>
Frame rate : 29.970 (30000/1001) FPS<br>
Color space : YUV<br>
Chroma subsampling : 4:2:0<br>
Bit depth : 8 bits<br>
Bits/(Pixel*Frame) : 0.378<br>
Stream size : 452 MiB (89%)<br>
Writing library : Lavc60.27.101 hevc_amf<br>
Default : No<br>
Forced : No<br>
Color range : Limited<br>
Transfer characteristics : BT.709<br>
Matrix coefficients : BT.709<br>
<br>
Audio<br>
ID : 2<br>
Format : PCM<br>
Format settings : Little / Signed<br>
Codec ID : A_PCM/INT/LIT<br>
Duration : 2 min 41 s<br>
Bit rate mode : Constant<br>
Bit rate : 2 304 kb/s<br>
Channel(s) : 2 channels<br>
Sampling rate : 48.0 kHz<br>
Bit depth : 24 bits<br>
Stream size : 44.3 MiB (9%)<br>
Writing library : Lavc60.27.101 pcm_s24le<br>
Default : No<br>
Forced : No</div>
</div><br>
<div class="bbCodeBlock bbCodeVfcHH HiddenContent">
<div class="attribution type">Hidden Content:</div>
<blockquote>You must reply before you can see the hidden data contained here.</blockquote>
</div>
<div class="messageTextEndMarker">&nbsp;</div>
</blockquote>
</article>]]></description>
                <author><![CDATA[2023user]]></author>
                </item>

                
                <item>
                <title><![CDATA[【HD Live Performances】UPSCALE - Avril Lavigne - Hot (Regis&amp;Kelly 2008) 1080P Upscale]]></title>
                <link><![CDATA[https://sharemania.us/threads/avril-lavigne-hot-regis-kelly-2008-1080p-upscale.234791/]]></link>
                <description><![CDATA[<article>
<blockquote class="messageText SelectQuoteContainer ugc baseHtml">
<a href="https://imgbox.com/FEiidtKy" target="_blank" class="externalLink" rel="nofollow"><img src="https://thumbs2.imgbox.com/27/41/FEiidtKy_t.jpg" class="bbCodeImage LbImage" alt="[​IMG]" data-url="https://thumbs2.imgbox.com/27/41/FEiidtKy_t.jpg"></a><br>
<br>
Artist : Black Sabbath<br>
Album : Paranoid [Quadraphonic Mix]<br>
Year : 1970 / 1974 for the Quadraphonic mix<br>
Format : FLAC 16bits / 48.0kHz<br>
Source : Ripped from the 2023 Warner Records Blu-ray disc DTS-HD Master Audio 24bits / 192.0kHz<br>
Size : 481mb<br>
Enjoy!<br>
<br>
<div class="bbCodeBlock bbCodeVfcHH HiddenContent">
<div class="attribution type">Hidden Content:</div>
<blockquote>You must reply before you can see the hidden data contained here.</blockquote>
</div>
<div class="messageTextEndMarker">&nbsp;</div>
</blockquote>
</article>]]></description>
                <author><![CDATA[Avril1255]]></author>
                </item>

                
                <item>
                <title><![CDATA[【HD Live Performances】UPSCALE - Avril Lavigne - Complicated (Music Station Japan 2003) 1080P Upscale]]></title>
                <link><![CDATA[https://sharemania.us/threads/avril-lavigne-complicated-music-station-japan-2003-1080p-upscale.234790/]]></link>
                <description><![CDATA[<article>
<blockquote class="messageText SelectQuoteContainer ugc baseHtml">
<img src="https://i.imgur.com/gCvJYV9.png" class="bbCodeImage LbImage" alt="[​IMG]" data-url="https://i.imgur.com/gCvJYV9.png" style=""> <img src="https://i.imgur.com/BorssL3.png" class="bbCodeImage LbImage" alt="[​IMG]" data-url="https://i.imgur.com/BorssL3.png" style=""> <br>
<br>
<div class="ToggleTriggerAnchor bbCodeSpoilerContainer">
<button type="button" class="button bbCodeSpoilerButton ToggleTrigger Tooltip JsOnly" data-target="> .SpoilerTarget"><span>Spoiler: <span class="SpoilerTitle">MediaInfo</span></span></button>
<div class="SpoilerTarget bbCodeSpoilerText">General<br>
File size : 432 MiB<br>
Duration : 2 min 17 s<br>
Overall bit rate : 26.3 Mb/s<br>
Writing application : Lavf60.14.101<br>
Writing library : Lavf60.14.101<br>
<br>
Video<br>
ID : 1<br>
Format : HEVC<br>
Format/Info : High Efficiency Video Coding<br>
Format profile : Main@L6.2@High<br>
Codec ID : V_MPEGH/ISO/HEVC<br>
Duration : 2 min 17 s<br>
Bit rate : 23.5 Mb/s<br>
Width : 1 602 pixels<br>
Height : 1 080 pixels<br>
Display aspect ratio : 4:3<br>
Frame rate mode : Constant<br>
Frame rate : 29.970 (30000/1001) FPS<br>
Color space : YUV<br>
Chroma subsampling : 4:2:0<br>
Bit depth : 8 bits<br>
Bits/(Pixel*Frame) : 0.453<br>
Stream size : 385 MiB (89%)<br>
Writing library : Lavc60.27.101 hevc_amf<br>
Default : No<br>
Forced : No<br>
Color range : Limited<br>
Transfer characteristics : BT.709<br>
Matrix coefficients : BT.709<br>
<br>
Audio<br>
ID : 2<br>
Format : PCM<br>
Format settings : Little / Signed<br>
Codec ID : A_PCM/INT/LIT<br>
Duration : 2 min 17 s<br>
Bit rate mode : Constant<br>
Bit rate : 2 304 kb/s<br>
Channel(s) : 2 channels<br>
Sampling rate : 48.0 kHz<br>
Bit depth : 24 bits<br>
Stream size : 37.8 MiB (9%)<br>
Writing library : Lavc60.27.101 hevc_amf<br>
Default : No<br>
Forced : No</div>
</div><br>
<div class="bbCodeBlock bbCodeVfcHH HiddenContent">
<div class="attribution type">Hidden Content:</div>
<blockquote>You must reply before you can see the hidden data contained here.</blockquote>
</div>
<div class="messageTextEndMarker">&nbsp;</div>
</blockquote>
</article>]]></description>
                <author><![CDATA[Avril1255]]></author>
                </item>

                </channel></rss>